# File created by Blade
# Date/Time:  Fri Jan 16 14:33:41 2015
# Frame Rate: 120.000 fps
#------------------------------------------------------
:FULLY-SPECIFIED
:DEGREES
3258
root 19.012063 35.566642 -25.475263 -169.970324 -6.353649 -179.380490
Spine -18.622306 -3.079320 0.676597
Head 7.545629 -4.458902 1.020946
LeftShoulder -14.684495 -27.632739 21.784740
LeftArm 3.768551 1.927309 -4.924412
LeftForeArm 14.099214 -0.000000 -1.053436
LeftHand -5.001147 -0.000000 -11.910974
LeftHandThumb1 -26.253704 0.000000 33.147579
RightShoulder -12.758813 -9.295733 -10.071115
RightArm 6.663562 46.662927 15.206593
RightForeArm -35.961106 -0.000000 6.494350
RightHand -8.361458 0.000000 4.989782
RightHandThumb1 -24.326973 -0.000000 -32.862282
LeftUpLeg -0.016881 6.392836 0.690307
LeftLeg -6.230843 -0.000000 0.000000
LeftFoot -20.946839 24.899989 -15.284508
LeftToeBase 24.649444 -0.000000 -0.000000
RightUpLeg 0.144910 -13.677241 3.221900
RightLeg -4.643989 -0.000000 0.000000
RightFoot -22.591459 -25.700634 17.845455
RightToeBase 21.850936 -0.000000 -0.000000
3259
root 19.013605 35.566425 -25.475394 -169.963384 -6.356590 -179.380792
Spine -18.633630 -3.077689 0.675349
Head 7.539650 -4.468986 1.034805
LeftShoulder -14.675973 -27.607607 21.779521
LeftArm 3.786074 1.919811 -4.927597
LeftForeArm 14.072329 -0.000000 -1.050169
LeftHand -5.004813 -0.000000 -11.921250
LeftHandThumb1 -26.253704 0.000000 33.147579
RightShoulder -12.746392 -9.281637 -10.079077
RightArm 6.620399 46.632168 15.184204
RightForeArm -35.938999 0.000000 6.502033
RightHand -8.364971 -0.000000 4.989027
RightHandThumb1 -24.326973 -0.000000 -32.862282
LeftUpLeg -0.029670 6.394150 0.691647
LeftLeg -6.220749 -0.000000 0.000000
LeftFoot -20.946030 24.896404 -15.277116
LeftToeBase 24.646265 -0.000000 -0.000000
RightUpLeg 0.138669 -13.681731 3.225440
RightLeg -4.646849 -0.000000 0.000000
RightFoot -22.588454 -25.695560 17.830955
RightToeBase 21.927236 -0.000000 -0.000000
3260
root 19.015227 35.566642 -25.475488 -169.955079 -6.359148 -179.371728
Spine -18.646515 -3.077262 0.692208
Head 7.542351 -4.490041 1.022595
LeftShoulder -14.676868 -27.612260 21.772045
LeftArm 3.802929 1.953783 -4.921658
LeftForeArm 14.052631 -0.000000 -1.053488
LeftHand -5.004395 -0.000000 -11.902353
LeftHandThumb1 -26.253704 0.000000 33.147579
RightShoulder -12.764060 -9.282309 -10.074692
RightArm 6.670151 46.668589 15.204608
RightForeArm -35.959169 -0.000000 6.478920
RightHand -8.369774 0.000000 4.959125
RightHandThumb1 -24.326973 -0.000000 -32.862282
LeftUpLeg -0.041424 6.394739 0.702758
LeftLeg -6.217143 -0.000000 0.000000
LeftFoot -20.954127 24.895283 -15.270165
LeftToeBase 24.692309 -0.000000 -0.000000
RightUpLeg 0.129268 -13.684353 3.238035
RightLeg -4.647150 -0.000000 0.000000
RightFoot -22.590449 -25.698107 17.846159
RightToeBase 21.913077 -0.000000 -0.000000
3261
root 19.015351 35.566170 -25.475797 -169.951030 -6.352801 -179.383170
Spine -18.653282 -3.076125 0.678313
Head 7.550153 -4.466368 1.042410
LeftShoulder -14.670785 -27.606738 21.772915
LeftArm 3.807100 1.941013 -4.919485
LeftForeArm 14.067900 -0.000000 -1.040990
LeftHand -4.995014 0.000000 -11.898879
LeftHandThumb1 -26.253704 0.000000 33.147579
RightShoulder -12.755498 -9.275836 -10.077559
RightArm 6.652100 46.667344 15.200309
RightForeArm -35.987846 -0.000000 6.492736
RightHand -8.367166 0.000000 4.965825
RightHandThumb1 -24.326973 -0.000000 -32.862282
LeftUpLeg -0.046972 6.415238 0.689569
LeftLeg -6.209852 -0.000000 0.000000
LeftFoot -20.966226 24.871412 -15.299080
LeftToeBase 24.684270 -0.000000 -0.000000
RightUpLeg 0.126742 -13.667990 3.228087
RightLeg -4.648104 -0.000000 0.000000
RightFoot -22.588791 -25.712859 17.832735
RightToeBase 21.841645 -0.000000 -0.000000
3262
root 19.016395 35.566100 -25.476004 -169.947044 -6.354465 -179.379301
Spine -18.662352 -3.071985 0.687769
Head 7.554518 -4.488577 1.024148
LeftShoulder -14.666782 -27.596091 21.760377
LeftArm 3.834072 1.942373 -4.917156
LeftForeArm 14.039052 0.000000 -1.052038
LeftHand -4.997448 -0.000000 -11.878655
LeftHandThumb1 -26.253704 0.000000 33.147579
RightShoulder -12.751157 -9.254126 -10.089526
RightArm 6.617483 46.632568 15.173414
RightForeArm -35.936784 0.000000 6.512163
RightHand -8.372243 -0.000000 4.994317
RightHandThumb1 -24.326973 -0.000000 -32.862282
LeftUpLeg -0.048495 6.407914 0.695138
LeftLeg -6.215600 -0.000000 0.000000
LeftFoot -20.962330 24.883045 -15.286724
LeftToeBase 24.685620 -0.000000 -0.000000
RightUpLeg 0.118362 -13.681677 3.234916
RightLeg -4.639523 -0.000000 0.000000
RightFoot -22.587488 -25.658116 17.824139
RightToeBase 22.021704 -0.000000 -0.000000
3263
root 19.017814 35.565706 -25.476469 -169.946440 -6.354856 -179.382105
Spine -18.665804 -3.068925 0.680833
Head 7.557103 -4.505255 1.035351
LeftShoulder -14.654615 -27.624505 21.761186
LeftArm 3.832694 1.985750 -4.908815
LeftForeArm 14.037962 -0.000000 -1.029224
LeftHand -5.017009 0.000000 -11.862124
LeftHandThumb1 -26.253704 0.000000 33.147579
RightShoulder -12.758768 -9.257754 -10.084542
RightArm 6.627413 46.653306 15.176972
RightForeArm -35.945209 -0.000000 6.510647
RightHand -8.372450 -0.000000 4.997368
RightHandThumb1 -24.326973 -0.000000 -32.862282
LeftUpLeg -0.053190 6.417322 0.694226
LeftLeg -6.205784 -0.000000 0.000000
LeftFoot -20.974835 24.868669 -15.304485
LeftToeBase 24.670210 -0.000000 -0.000000
RightUpLeg 0.124532 -13.681548 3.234454
RightLeg -4.651007 -0.000000 0.000000
RightFoot -22.594973 -25.707216 17.821871
RightToeBase 21.947196 -0.000000 -0.000000
3264
root 19.018083 35.565510 -25.476716 -169.942715 -6.350136 -179.380718
Spine -18.674185 -3.068236 0.688004
Head 7.562586 -4.500955 1.035331
LeftShoulder -14.660283 -27.614469 21.759436
LeftArm 3.848707 1.975105 -4.912419
LeftForeArm 14.050972 0.000000 -1.026276
LeftHand -5.025585 -0.000000 -11.800996
LeftHandThumb1 -26.253704 0.000000 33.147579
RightShoulder -12.764691 -9.280014 -10.080952
RightArm 6.657975 46.681460 15.195594
RightForeArm -35.965778 -0.000000 6.521518
RightHand -8.391509 -0.000000 4.964350
RightHandThumb1 -24.326973 -0.000000 -32.862282
LeftUpLeg -0.052500 6.404668 0.696629
LeftLeg -6.212775 -0.000000 0.000000
LeftFoot -20.967164 24.889563 -15.279218
LeftToeBase 24.694272 -0.000000 -0.000000
RightUpLeg 0.115919 -13.679892 3.236059
RightLeg -4.641187 -0.000000 0.000000
RightFoot -22.595801 -25.705210 17.824100
RightToeBase 21.869194 -0.000000 -0.000000
